<svg width="173" height="171" viewBox="0 0 173 171" fill="none" xmlns="http://www.w3.org/2000/svg">
<path d="M156.781 94.6378C156.781 89.9183 154.885 85.3922 151.508 82.055C148.132 78.7179 143.553 76.8431 138.778 76.8431C136.513 76.8586 134.272 77.3124 132.183 78.179V67.4915C132.183 55.5158 127.37 44.0305 118.803 35.5624C110.235 27.0942 98.6158 22.3369 86.5 22.3369C74.3841 22.3369 62.7645 27.0942 54.1974 35.5624C45.6302 44.0305 40.8172 55.5158 40.8172 67.4915V78.179C38.7279 77.3124 36.4872 76.8586 34.2215 76.8431C29.8786 76.8319 25.678 78.3729 22.394 81.182C19.11 83.9911 16.964 87.8789 16.3516 92.1287C15.7393 96.3786 16.7019 100.704 19.0619 104.308C21.4219 107.911 25.0203 110.55 29.1937 111.738C28.6208 113.749 28.4596 115.853 28.7196 117.927C28.9795 120.001 29.6553 122.002 30.7075 123.815C31.8819 125.858 33.5788 127.56 35.6282 128.751C37.6776 129.942 40.0077 130.58 42.385 130.601V139.418C42.3928 140.565 42.6309 141.699 43.0857 142.754C43.5404 143.809 44.2027 144.764 45.034 145.564C46.155 146.646 47.483 147.496 48.9404 148.065C50.3978 148.634 51.9553 148.91 53.5219 148.877C56.2473 149.07 58.9406 148.199 61.023 146.45C63.1055 144.701 64.4109 142.215 64.6587 139.525V130.655H108.774V139.418C108.799 141.722 109.729 143.926 111.369 145.564C112.5 146.648 113.837 147.499 115.303 148.067C116.77 148.636 118.336 148.911 119.911 148.877C122.636 149.07 125.329 148.199 127.412 146.45C129.494 144.701 130.8 142.215 131.047 139.525V130.601C133.398 130.558 135.697 129.909 137.716 128.719C139.736 127.529 141.406 125.838 142.563 123.815C144.668 120.127 145.212 115.767 144.077 111.684C147.771 110.578 151.005 108.32 153.294 105.248C155.584 102.175 156.807 98.4536 156.781 94.6378ZM46.0612 67.2778C46.0612 62.0147 47.11 56.8031 49.1477 51.9406C51.1853 47.0781 54.172 42.6599 57.9371 38.9383C61.7023 35.2167 66.1721 32.2645 71.0915 30.2504C76.0109 28.2363 81.2834 27.1997 86.6081 27.1997C91.9328 27.1997 97.2053 28.2363 102.125 30.2504C107.044 32.2645 111.514 35.2167 115.279 38.9383C119.044 42.6599 122.031 47.0781 124.069 51.9406C126.106 56.8031 127.155 62.0147 127.155 67.2778V81.225C126.777 81.599 126.452 82.0265 126.074 82.454C125.637 82.8239 125.239 83.2356 124.884 83.6831C124.42 84.2914 124.004 84.9346 123.641 85.6069L122.776 86.9962C122.447 87.7829 122.158 88.5854 121.911 89.4009C121.911 89.8284 121.587 90.2025 121.478 90.6834C121.195 91.9649 121.05 93.2726 121.046 94.5844L117.748 93.5156C107.621 90.4676 97.0856 88.9542 86.5 89.0268C75.9868 88.9757 65.5256 90.4889 55.4681 93.5156L52.1703 94.5844C52.1549 93.3262 52.01 92.0729 51.7378 90.8437C51.7378 90.3628 51.4134 89.9887 51.3053 89.5612C51.0582 88.7458 50.7695 87.9432 50.4403 87.1565L49.5753 85.5C49.2246 84.8205 48.8082 84.1763 48.3319 83.5762C47.9534 83.0953 47.5209 82.7212 47.1425 82.2937L46.0612 81.1181V67.2778ZM21.625 94.6378C21.625 91.2789 22.9749 88.0576 25.3778 85.6825C27.7806 83.3074 31.0396 81.9731 34.4378 81.9731C37.8178 82.0149 41.0467 83.3643 43.4318 85.7319C45.817 88.0995 47.1685 91.2967 47.1965 94.6378C47.1927 95.6853 47.0473 96.7277 46.764 97.7372C46.7418 97.8609 46.7418 97.9875 46.764 98.1112C46.6698 98.4777 46.5431 98.8354 46.3856 99.18C45.4396 101.542 43.8027 103.571 41.6841 105.008C39.5654 106.445 37.0614 107.226 34.4919 107.249H32.9781C29.8387 106.917 26.9367 105.442 24.8379 103.11C22.739 100.779 21.5936 97.7585 21.625 94.6378ZM59.4687 139.525C59.4687 141.823 56.7115 143.747 53.5219 143.747C51.7217 143.795 49.9743 143.143 48.6562 141.93C48.3127 141.617 48.0391 141.237 47.8529 140.814C47.6667 140.391 47.572 139.933 47.575 139.472V130.655H59.4687V139.525ZM125.695 139.525C125.695 141.823 122.992 143.747 119.802 143.747C118.021 143.781 116.295 143.13 114.991 141.93C114.581 141.651 114.237 141.286 113.985 140.861C113.733 140.436 113.578 139.962 113.531 139.472V130.655H125.263L125.695 139.525ZM137.967 121.25C137.219 122.552 136.134 123.635 134.823 124.386C133.512 125.137 132.022 125.53 130.507 125.525H42.6553C41.1399 125.53 39.6502 125.137 38.3391 124.386C37.0281 123.635 35.9428 122.552 35.1947 121.25C34.3981 119.895 33.9125 118.384 33.7724 116.823C33.6322 115.263 33.8409 113.691 34.3837 112.219H35.8434H36.9787C37.4896 112.143 37.9951 112.036 38.4925 111.898L39.5737 111.631L41.0875 111.043L42.0606 110.616L43.5203 109.814L44.3312 109.333C44.8406 108.989 45.3281 108.614 45.7909 108.211L46.4397 107.73L47.7912 106.287L48.2237 105.806C48.6634 105.248 49.0609 104.659 49.4131 104.043L49.7375 103.669C50.1614 102.981 50.5406 102.267 50.8728 101.531C50.9868 101.291 51.0773 101.04 51.1431 100.783C53.0353 100.088 54.9815 99.3403 57.0359 98.699C76.2684 93.0873 96.7316 93.0873 115.964 98.699C118.018 99.3403 119.965 100.088 121.803 100.783V101.317C122.144 102.144 122.542 102.948 122.992 103.722L123.317 104.203C123.682 104.794 124.079 105.365 124.506 105.913L125.101 106.554C125.533 106.982 125.912 107.463 126.344 107.837L127.101 108.425L128.398 109.493L129.317 110.028C129.804 110.295 130.237 110.616 130.723 110.829L131.75 111.257L133.156 111.845L134.291 112.112C134.789 112.25 135.294 112.357 135.805 112.432H136.94H138.4C138.943 113.859 139.17 115.384 139.068 116.905C138.965 118.425 138.535 119.907 137.805 121.25H137.967ZM140.13 107.196H139.211C136.549 107.212 133.945 106.422 131.751 104.931C129.557 103.441 127.878 101.322 126.939 98.8594C126.805 98.5523 126.714 98.2287 126.668 97.8975C126.385 96.8516 126.24 95.7739 126.236 94.6912C126.264 91.3501 127.615 88.1529 130.001 85.7854C132.386 83.4178 135.615 82.0684 138.995 82.0265C142.378 81.8706 145.686 83.0498 148.191 85.3046C150.695 87.5595 152.19 90.7053 152.348 94.05C152.506 97.3947 151.313 100.664 149.032 103.14C146.75 105.615 143.568 107.093 140.184 107.249L140.13 107.196Z" fill="black"/>
</svg>
