<svg width="173" height="171" viewBox="0 0 173 171" fill="none" xmlns="http://www.w3.org/2000/svg">
<path d="M148.358 98.2281C149.475 98.2239 150.577 97.9766 151.587 97.5039C152.597 97.0311 153.489 96.3445 154.2 95.4928C154.851 94.7239 155.337 93.8326 155.63 92.8726C155.923 91.9126 156.016 90.9039 155.903 89.9075C155.79 88.911 155.474 87.9475 154.974 87.0752C154.474 86.2028 153.8 85.4398 152.993 84.832L118.005 58.5341C117.191 57.9264 116.199 57.5977 115.178 57.5977C114.158 57.5977 113.166 57.9264 112.352 58.5341L89.7336 75.5339V64.5558C91.0457 64.7717 92.3921 64.6425 93.6376 64.1811C94.8832 63.7197 95.9839 62.9424 96.8293 61.9274C97.4813 61.1586 97.9688 60.267 98.2621 59.3067C98.5554 58.3463 98.6485 57.3371 98.5357 56.3401C98.4229 55.3431 98.1066 54.3791 97.606 53.5065C97.1053 52.6338 96.4307 51.8707 95.623 51.2633L60.648 24.972C59.8346 24.3628 58.842 24.033 57.8215 24.033C56.801 24.033 55.8084 24.3628 54.9951 24.972L20.0065 51.2633C18.7648 52.2208 17.8553 53.5366 17.4044 55.0281C16.9535 56.5196 16.9834 58.1129 17.49 59.5869C17.9966 61.0608 18.9547 62.3424 20.2315 63.2537C21.5083 64.1651 23.0405 64.661 24.6153 64.6727C25.0494 64.6721 25.4825 64.633 25.9094 64.5558V143.309H21.3547C20.8618 143.309 20.3891 143.503 20.0406 143.847C19.6921 144.192 19.4963 144.659 19.4963 145.146C19.4963 145.633 19.6921 146.101 20.0406 146.445C20.3891 146.79 20.8618 146.983 21.3547 146.983H152.118C152.611 146.983 153.084 146.79 153.432 146.445C153.781 146.101 153.977 145.633 153.977 145.146C153.977 144.659 153.781 144.192 153.432 143.847C153.084 143.503 152.611 143.309 152.118 143.309H145.293V97.5535C146.254 97.9931 147.299 98.2232 148.358 98.2281ZM114.589 61.4531C114.759 61.3266 114.966 61.2582 115.178 61.2582C115.391 61.2582 115.598 61.3266 115.768 61.4531L150.753 87.7377C151.164 88.0443 151.508 88.4311 151.762 88.874C152.015 89.3169 152.175 89.8065 152.23 90.3127C152.306 91.0531 152.163 91.7994 151.818 92.4608C151.473 93.1222 150.94 93.6702 150.286 94.0379C149.631 94.4056 148.883 94.5773 148.131 94.532C147.38 94.4867 146.658 94.2264 146.053 93.7828L117.687 72.0538C116.971 71.5024 116.088 71.203 115.18 71.203C114.272 71.203 113.39 71.5024 112.673 72.0538L89.7336 89.6247V80.1262L114.589 61.4531ZM21.625 59.5761C21.2942 59.187 21.047 58.7355 20.8981 58.2491C20.7493 57.7626 20.7021 57.2513 20.7593 56.7462C20.8165 56.2412 20.9769 55.7529 21.2309 55.311C21.4848 54.8691 21.827 54.4828 22.2366 54.1756L57.2319 27.881C57.4018 27.7545 57.6088 27.686 57.8215 27.686C58.0343 27.686 58.2412 27.7545 58.4111 27.881L93.3963 54.1756C93.8069 54.482 94.1497 54.8682 94.4037 55.3105C94.6576 55.7528 94.8173 56.2417 94.8729 56.7473C94.9299 57.2711 94.8758 57.8009 94.7141 58.303C94.5524 58.805 94.2865 59.2682 93.9336 59.663C93.3993 60.298 92.6675 60.7406 91.8523 60.9219C91.037 61.1031 90.184 61.0127 89.4261 60.6649C89.2914 60.4622 89.1171 60.288 88.9135 60.1527C88.7098 60.0173 88.4809 59.9235 88.2401 59.8767L60.327 38.5017C59.6103 37.9517 58.7288 37.6531 57.8215 37.6531C56.9142 37.6531 56.0327 37.9517 55.3161 38.5017L27.3995 59.8767C27.1596 59.9235 26.9315 60.017 26.7285 60.1518C26.5255 60.2865 26.3516 60.4598 26.2169 60.6616C25.4387 61.0128 24.564 61.0968 23.7319 60.9001C22.8999 60.7034 22.1582 60.2374 21.625 59.5761ZM29.5992 62.8058L57.5698 41.3773C57.6387 41.3253 57.723 41.2971 57.8097 41.2971C57.8964 41.2971 57.9807 41.3253 58.0496 41.3773L86.0236 62.8058V143.296H77.8432V113.508C77.8432 113.268 77.7953 113.03 77.7022 112.808C77.6091 112.586 77.4727 112.385 77.3007 112.215C77.1287 112.045 76.9246 111.911 76.6999 111.819C76.4753 111.728 76.2346 111.681 75.9916 111.681H39.6481C39.4053 111.681 39.165 111.728 38.9408 111.82C38.7165 111.912 38.5128 112.046 38.3411 112.216C38.1695 112.386 38.0334 112.587 37.9405 112.809C37.8476 113.03 37.7998 113.268 37.7998 113.508V143.309H29.6093L29.5992 62.8058ZM74.1332 143.296H41.4997V115.338H74.1433L74.1332 143.296ZM89.7235 143.296V94.2504L114.93 74.9427C114.999 74.8907 115.083 74.8626 115.17 74.8626C115.257 74.8626 115.341 74.8907 115.41 74.9427L141.573 94.9818V143.309L89.7235 143.296Z" fill="black"/>
<path d="M39.6481 79.9826H75.9916C76.4827 79.9826 76.9536 79.7897 77.3009 79.4465C77.6481 79.1033 77.8432 78.6377 77.8432 78.1523V63.0128C77.8432 62.7726 77.7953 62.5348 77.7022 62.3129C77.6091 62.091 77.4727 61.8895 77.3007 61.7198C77.1287 61.5501 76.9246 61.4156 76.6999 61.324C76.4753 61.2324 76.2346 61.1855 75.9916 61.1859H39.6481C39.1579 61.1859 38.6878 61.3784 38.3411 61.721C37.9945 62.0636 37.7998 62.5283 37.7998 63.0128V78.1523C37.7994 78.3925 37.8468 78.6304 37.9395 78.8525C38.0322 79.0745 38.1683 79.2763 38.34 79.4463C38.5116 79.6163 38.7155 79.7512 38.94 79.8432C39.1644 79.9352 39.4051 79.9826 39.6481 79.9826ZM74.1433 76.3254H59.6715V64.843H74.1433V76.3254ZM41.4997 64.843H55.9716V76.3254H41.4997V64.843Z" fill="black"/>
<path d="M39.6481 105.232H75.9916C76.4827 105.232 76.9536 105.039 77.3009 104.696C77.6481 104.352 77.8432 103.887 77.8432 103.402V88.262C77.8432 88.0219 77.7953 87.784 77.7022 87.5622C77.6091 87.3403 77.4727 87.1387 77.3007 86.9691C77.1287 86.7994 76.9246 86.6649 76.6999 86.5733C76.4753 86.4816 76.2346 86.4347 75.9916 86.4352H39.6481C39.4054 86.4352 39.165 86.4824 38.9408 86.5742C38.7165 86.666 38.5128 86.8006 38.3411 86.9702C38.1695 87.1399 38.0334 87.3413 37.9405 87.5629C37.8476 87.7846 37.7998 88.0221 37.7998 88.262V103.402C37.7994 103.642 37.8468 103.88 37.9395 104.102C38.0322 104.324 38.1683 104.526 38.34 104.696C38.5116 104.866 38.7155 105 38.94 105.092C39.1644 105.184 39.4051 105.232 39.6481 105.232ZM74.1433 101.575H59.6715V90.0923H74.1433V101.575ZM41.4997 90.0923H55.9716V101.575H41.4997V90.0923Z" fill="black"/>
<path d="M131.304 94.0032H100.066C99.5753 94.0032 99.1043 94.1961 98.7571 94.5393C98.4098 94.8825 98.2147 95.3481 98.2147 95.8335V110.973C98.2156 111.458 98.4111 111.922 98.7582 112.265C99.1054 112.608 99.5759 112.8 100.066 112.8H131.304C131.547 112.8 131.787 112.753 132.012 112.661C132.236 112.569 132.44 112.434 132.611 112.265C132.783 112.095 132.919 111.894 133.012 111.672C133.105 111.45 133.153 111.213 133.153 110.973V95.8335C133.153 95.5933 133.106 95.3554 133.013 95.1333C132.92 94.9113 132.784 94.7095 132.612 94.5395C132.441 94.3695 132.237 94.2346 132.012 94.1426C131.788 94.0506 131.547 94.0032 131.304 94.0032ZM101.908 97.6771H113.835V109.159H101.915L101.908 97.6771ZM129.446 109.159H117.535V97.6604H129.453L129.446 109.159Z" fill="black"/>
<path d="M131.304 120.067H100.066C99.5759 120.067 99.1054 120.26 98.7582 120.602C98.4111 120.945 98.2156 121.409 98.2147 121.894V137.034C98.2147 137.274 98.2626 137.512 98.3557 137.734C98.4487 137.956 98.5851 138.158 98.7571 138.328C98.929 138.498 99.1331 138.633 99.3578 138.725C99.5824 138.817 99.8232 138.864 100.066 138.864H131.304C131.547 138.864 131.788 138.817 132.012 138.725C132.237 138.633 132.441 138.498 132.612 138.328C132.784 138.158 132.92 137.956 133.013 137.734C133.106 137.512 133.153 137.274 133.153 137.034V121.904C133.154 121.664 133.107 121.425 133.015 121.202C132.923 120.979 132.787 120.777 132.615 120.606C132.443 120.435 132.239 120.3 132.014 120.207C131.789 120.115 131.548 120.067 131.304 120.067ZM101.908 123.725H113.835V135.207H101.915L101.908 123.725ZM129.446 135.207H117.535V123.725H129.453L129.446 135.207Z" fill="black"/>
</svg>
