<svg width="171" height="172" viewBox="0 0 171 172" fill="none" xmlns="http://www.w3.org/2000/svg">
<path d="M74.8254 71.2758C74.8254 69.3734 73.2968 67.8097 71.3795 67.8097C69.4881 67.8097 67.9336 69.3734 67.9336 71.2758C67.9336 73.2043 69.4881 74.7418 71.3795 74.7418C73.2968 74.7679 74.8254 73.2303 74.8254 71.2758Z" fill="black"/>
<path d="M99.6464 74.7679C101.564 74.7679 103.092 73.2303 103.092 71.3018C103.092 69.3994 101.564 67.8358 99.6464 67.8358C97.7551 67.8358 96.2005 69.3994 96.2005 71.3018C96.1746 73.2303 97.7291 74.7679 99.6464 74.7679Z" fill="black"/>
<path d="M85.5 94.3655C87.7541 94.3655 90.0082 93.5055 91.7182 91.7855C92.2364 91.2903 92.2364 90.4564 91.7182 89.9352C91.2 89.4139 90.3969 89.4139 89.8787 89.9352C87.4432 92.3588 83.505 92.3588 81.0696 89.9352C80.5773 89.44 79.7482 89.44 79.23 89.9352C78.7378 90.4564 78.7378 91.2643 79.23 91.7855C80.9919 93.5055 83.246 94.3655 85.5 94.3655Z" fill="black"/>
<path d="M85.4999 83.7588C87.6503 83.7588 89.3863 82.0128 89.3863 79.8497C89.3863 79.12 88.8163 78.5467 88.0908 78.5467C87.3653 78.5467 86.7953 79.12 86.7953 79.8497C86.7953 80.5534 86.2253 81.1528 85.4999 81.1528C84.7744 81.1528 84.2044 80.5794 84.2044 79.8497C84.2044 79.12 83.6344 78.5467 82.909 78.5467C82.1835 78.5467 81.6135 79.12 81.6135 79.8497C81.6135 82.0128 83.3494 83.7588 85.4999 83.7588Z" fill="black"/>
<path d="M85.4999 32.3152C82.7795 32.3152 80.5513 34.5564 80.5513 37.2928C80.5513 40.0552 82.7795 42.2964 85.4999 42.2964C88.2204 42.2964 90.4485 40.0552 90.4485 37.2928C90.4485 34.5564 88.2204 32.3152 85.4999 32.3152ZM85.4999 39.6903C84.2045 39.6903 83.1422 38.6219 83.1422 37.2928C83.1422 35.9897 84.2045 34.9212 85.4999 34.9212C86.7954 34.9212 87.8576 35.9897 87.8576 37.2928C87.8576 38.6219 86.7954 39.6903 85.4999 39.6903Z" fill="black"/>
<path d="M158.797 163.452H147.371V138.616C147.371 127.958 140.609 118.628 130.53 115.344L116.643 110.81C116.643 110.81 116.617 110.81 116.617 110.784L111.927 109.246L103.87 106.614V97.8837C109.155 92.5933 113.119 85.114 114.829 76.4097C118.43 74.7418 120.814 71.0412 120.814 66.9758C120.814 66.1418 120.685 65.3079 120.477 64.5H122.291H122.317C123.975 64.5 125.555 63.8485 126.747 62.6758C127.939 61.477 128.587 59.9133 128.587 58.2194C128.587 56.5255 127.939 54.9358 126.773 53.737C125.581 52.5382 124.027 51.8867 122.343 51.8606H121.617V48.7594C121.617 44.7721 120.97 40.8891 119.726 37.1885C117.99 31.8982 114.985 27.0249 111.02 23.0637C110.502 22.5424 109.958 22.0212 109.44 21.6043C106.227 18.7637 102.496 16.5224 98.4027 14.9327V11.2843C98.4027 8.33941 96.0191 5.9679 93.1172 5.9679H77.9086C74.9809 5.9679 72.6231 8.36547 72.6231 11.2843V14.9327C68.5036 16.5224 64.7727 18.7637 61.56 21.6564C56.7927 25.8782 53.2172 31.2727 51.2741 37.2406C50.0045 40.9412 49.3827 44.8243 49.3827 48.8115V51.6782H48.709H48.6831C45.2372 51.6782 42.4131 54.4927 42.4131 57.9588C42.4131 61.4509 45.2113 64.2915 48.6572 64.2915H50.5745C50.3413 65.1776 50.1859 66.0636 50.1859 67.0018C50.1859 71.0673 52.5695 74.7679 56.1709 76.4358C57.8809 85.14 61.845 92.6194 67.1304 97.9097V106.64L54.4609 110.784L40.47 115.344C30.3913 118.602 23.629 127.958 23.629 138.616V163.452H12.229C11.5036 163.452 10.9336 164.025 10.9336 164.755C10.9336 165.485 11.5036 166.058 12.229 166.058H24.9245H77.7013H93.3245H146.101H158.823C159.548 166.058 160.118 165.485 160.118 164.755C160.118 164.025 159.522 163.452 158.797 163.452ZM110.787 111.644L114.207 112.764L101.408 132.57C101.071 133.118 100.527 133.482 99.9054 133.587C99.2836 133.717 98.6359 133.561 98.1177 133.196L92.91 129.443L87.4431 125.508L95.9672 116.465L102.963 109.064L110.787 111.644ZM91.3295 131.528L92.91 133.118L88.8163 137.235H82.1577L78.064 133.118L79.5668 131.606L85.5 127.332L91.3295 131.528ZM69.6954 107.083V100.281C72.2863 102.366 75.0845 103.904 77.9863 104.894H78.0122C78.7377 105.155 79.4891 105.363 80.2404 105.519C80.37 105.545 80.4995 105.572 80.6291 105.598C81.2768 105.728 81.9245 105.832 82.5722 105.936C82.7536 105.962 82.909 105.988 83.0904 106.015C83.8936 106.093 84.6968 106.145 85.5 106.145C86.3031 106.145 87.1063 106.093 87.8836 106.015C88.065 105.988 88.2463 105.962 88.4277 105.936C89.0754 105.858 89.7231 105.754 90.345 105.624C90.5004 105.598 90.63 105.572 90.7854 105.519C91.5109 105.363 92.2363 105.155 92.9359 104.92C92.9877 104.894 93.0136 104.894 93.0654 104.868C95.4491 104.06 97.729 102.861 99.9313 101.298C99.9572 101.272 99.9572 101.272 99.9831 101.245C100.424 100.933 100.89 100.594 101.305 100.255V107.057L93.0395 115.839L85.5 123.84L69.6954 107.083ZM109.207 24.9661C112.575 28.3279 115.14 32.4194 116.798 36.8497L103.792 41.2018L109.181 24.94C109.181 24.9661 109.207 24.9661 109.207 24.9661ZM61.845 25.0443L67.2081 41.2279L54.2018 36.8758C55.86 32.4455 58.4768 28.4321 61.845 25.0443ZM51.9477 48.8115C51.9477 45.554 52.44 42.3746 53.3468 39.3255L68.8404 44.5115C68.97 44.5637 69.0995 44.5897 69.255 44.5897C69.5918 44.5897 69.9286 44.4594 70.1618 44.1988C70.4986 43.86 70.6281 43.3388 70.4727 42.8697L63.9177 23.0897C66.5086 20.8746 69.4104 19.1024 72.5972 17.7733V26.4515C72.5972 27.1812 73.1672 27.7546 73.8927 27.7546C74.6181 27.7546 75.1881 27.1812 75.1881 26.4515V11.2843C75.1881 9.77274 76.4059 8.57396 77.8827 8.57396H93.0913C94.5941 8.57396 95.7859 9.7988 95.7859 11.2843V26.4255C95.7859 27.1552 96.3559 27.7285 97.0813 27.7285C97.8068 27.7285 98.3768 27.1552 98.3768 26.4255V17.7473C101.564 19.0764 104.465 20.8485 107.082 23.0637L100.527 42.8437C100.372 43.3127 100.501 43.834 100.838 44.1727C101.097 44.4333 101.408 44.5637 101.745 44.5637C101.875 44.5637 102.03 44.5376 102.16 44.4855L117.653 39.2994C118.56 42.3485 119.052 45.5279 119.052 48.7855V51.6521H51.9477V48.8115ZM48.6572 61.7115C46.6363 61.7115 44.9781 60.0436 44.9781 57.9849C44.9781 56.9946 45.3668 56.0564 46.0663 55.3788C46.7659 54.6752 47.6727 54.3103 48.6572 54.3103C48.6572 54.3103 48.6572 54.3103 48.6831 54.3103L122.343 54.5449C124.364 54.5449 126.022 56.2127 126.022 58.2715C126.022 59.2618 125.633 60.2 124.934 60.8776C124.234 61.5812 123.327 61.9461 122.343 61.9461C122.343 61.9461 122.343 61.9461 122.317 61.9461L48.6572 61.7115ZM58.5804 75.2891C58.4768 74.8461 58.1918 74.4552 57.7513 74.2988C54.7718 73.1782 52.7768 70.2594 52.7768 67.0279C52.7768 66.0897 52.9322 65.1776 53.2431 64.3176L117.809 64.5261C118.094 65.334 118.223 66.1679 118.223 67.0279C118.223 70.2594 116.228 73.1782 113.249 74.2988C112.834 74.4552 112.445 74.82 112.42 75.2891C111.202 101.662 70.1618 121.39 58.5804 75.2891ZM68.0113 109.09L83.5309 125.534L72.8563 133.222C72.3381 133.587 71.7163 133.743 71.0686 133.613C70.4468 133.482 69.9027 133.118 69.5659 132.596L56.7668 112.79L68.0113 109.09ZM76.5613 163.452H26.194V138.616C26.194 129.104 32.2309 120.739 41.2472 117.82L54.2018 113.598L67.3895 134.004C68.115 135.15 69.255 135.906 70.6022 136.167C70.9131 136.219 71.2241 136.245 71.535 136.245C72.5454 136.245 73.53 135.932 74.385 135.333L75.6804 134.395L80.2404 138.981L76.5613 163.452ZM79.1781 163.452L82.7277 139.841H88.2722L91.8218 163.452H79.1781ZM144.78 163.452H94.4127L90.7336 138.981L95.2936 134.395L96.5891 135.333C97.444 135.932 98.4286 136.245 99.4391 136.245C99.75 136.245 100.061 136.219 100.372 136.167C101.693 135.906 102.833 135.15 103.585 134.004L116.772 113.598L129.727 117.82C138.743 120.739 144.78 129.078 144.78 138.616V163.452Z" fill="black"/>
</svg>
