<svg width="171" height="171" viewBox="0 0 171 171" fill="none" xmlns="http://www.w3.org/2000/svg">
<path d="M95.2891 36.4911L26.8156 36.4811C22.7176 36.4811 19.3811 33.1446 19.3811 29.0466C19.3811 24.9486 22.7176 21.6121 26.8156 21.6121L105.028 21.6021C106.451 21.6021 107.61 22.7577 107.61 24.1838C107.61 25.6099 106.454 26.7655 105.028 26.7655L26.8156 26.7755C25.5632 26.7755 24.5412 27.7942 24.5412 29.0466C24.5412 30.2991 25.5598 31.3211 26.8156 31.3211L95.2891 31.3311C96.7152 31.3311 97.8708 32.4867 97.8708 33.9128C97.8708 35.3389 96.7118 36.4911 95.2891 36.4911Z" fill="white" fill-opacity="0.7"/>
<path d="M145.033 36.4812L127.185 36.4578C125.759 36.4544 124.603 35.2988 124.606 33.8727C124.61 32.45 125.762 31.2944 127.188 31.2944H127.191L145.036 31.3178C146.285 31.3178 147.307 30.2991 147.307 29.0433C147.307 27.7909 146.285 26.7722 145.033 26.7722H136.874C135.447 26.7722 134.292 25.6166 134.292 24.1905C134.292 22.7644 135.447 21.6088 136.874 21.6088H145.033C149.134 21.6088 152.467 24.942 152.467 29.0433C152.467 33.1446 149.131 36.4812 145.033 36.4812Z" fill="white" fill-opacity="0.7"/>
<path d="M146.078 129.93H24.077C21.021 129.93 18.5328 127.445 18.5328 124.386V120.602C18.5328 117.546 21.0177 115.058 24.077 115.058H146.078C149.134 115.058 151.619 117.542 151.619 120.602V124.386C151.619 127.445 149.134 129.93 146.078 129.93ZM24.077 120.221C23.8666 120.221 23.6962 120.391 23.6962 120.602V124.386C23.6962 124.596 23.8666 124.767 24.077 124.767H146.078C146.289 124.767 146.459 124.596 146.459 124.386V120.602C146.459 120.391 146.289 120.221 146.078 120.221H24.077Z" fill="white" fill-opacity="0.7"/>
<path d="M145.056 120.358H25.5799C24.1538 120.358 22.9982 119.202 22.9982 117.776V33.8994C22.9982 32.4733 24.1538 31.3177 25.5799 31.3177C27.006 31.3177 28.1616 32.4733 28.1616 33.8994V115.195H142.478V33.8994C142.478 32.4733 143.633 31.3177 145.059 31.3177C146.486 31.3177 147.641 32.4733 147.641 33.8994V117.776C147.638 119.202 146.482 120.358 145.056 120.358Z" fill="white" fill-opacity="0.7"/>
<path d="M48.4979 170.666C48.4912 170.666 48.4879 170.666 48.4846 170.666L38.3815 170.609C37.5332 170.603 36.7417 170.182 36.2641 169.484C35.7865 168.786 35.6829 167.894 35.9869 167.102L51.5839 126.49C51.9647 125.498 52.9132 124.84 53.9753 124.833L64.1284 124.767C64.9867 124.773 65.7816 125.177 66.2692 125.879C66.7535 126.58 66.8637 127.475 66.5564 128.273L50.9126 169.009C50.5252 170.008 49.5667 170.666 48.4979 170.666ZM42.1422 165.469L46.7278 165.496L60.3744 129.957L55.7654 129.987L42.1422 165.469Z" fill="white" fill-opacity="0.7"/>
<path d="M120.004 170.666C118.895 170.666 117.907 169.958 117.556 168.903L103.963 128.167C103.699 127.375 103.832 126.507 104.32 125.835C104.808 125.161 105.576 124.653 106.428 124.77L116.581 124.837C117.643 124.843 118.591 125.501 118.972 126.493L134.569 167.106C134.873 167.897 134.769 168.786 134.288 169.487C133.811 170.185 133.019 170.606 132.171 170.613L120.014 170.669C120.014 170.666 120.011 170.666 120.004 170.666ZM110.001 129.953L121.861 165.496L128.41 165.466L114.787 129.987L110.001 129.953Z" fill="white" fill-opacity="0.7"/>
<path d="M42.4528 105.743C41.0267 105.743 39.8711 104.587 39.8711 103.161V47.8533C39.8711 46.4272 41.0267 45.2716 42.4528 45.2716C43.8789 45.2716 45.0345 46.4272 45.0345 47.8533V103.161C45.0345 104.587 43.8789 105.743 42.4528 105.743Z" fill="white" fill-opacity="0.7"/>
<path d="M130.745 97.1193H37.3795C35.9534 97.1193 34.7979 95.9637 34.7979 94.5376C34.7979 93.1115 35.9534 91.9559 37.3795 91.9559H130.742C132.168 91.9559 133.323 93.1115 133.323 94.5376C133.323 95.9637 132.171 97.1193 130.745 97.1193Z" fill="white" fill-opacity="0.7"/>
<path d="M88.1853 75.4571C87.5006 75.4571 86.846 75.1866 86.3617 74.7023L70.4307 58.7712C69.422 57.7626 69.422 56.1294 70.4307 55.1208L124.459 1.08881C125.468 0.0801782 127.101 0.0801782 128.11 1.08881L144.044 17.0199C144.528 17.5041 144.799 18.1588 144.799 18.8434C144.799 19.5281 144.525 20.1827 144.044 20.667L90.0122 74.7023C89.5279 75.1866 88.8699 75.4571 88.1853 75.4571ZM75.9047 56.9444L88.1853 69.2283L138.567 18.8468L126.283 6.56281L75.9047 56.9444Z" fill="white" fill-opacity="0.7"/>
<path d="M64.2887 83.4226C63.6174 83.4226 62.9561 83.1588 62.4652 82.6678C61.7738 81.9765 61.5333 80.9545 61.8406 80.026L69.8061 56.1294C70.09 55.2811 70.7914 54.6399 71.6631 54.4361C72.5314 54.2291 73.4466 54.4896 74.0811 55.1241L90.0122 71.0552C90.6434 71.6864 90.9039 72.6015 90.7002 73.4732C90.4931 74.3416 89.8519 75.0463 89.0035 75.3268L65.1036 83.2924C64.8364 83.3792 64.5592 83.4226 64.2887 83.4226ZM73.3831 61.7237L68.37 76.763L83.4093 71.7499L73.3831 61.7237Z" fill="white" fill-opacity="0.7"/>
</svg>
